<?xml version="1.0"?>
<svg version="1.1" xmlns="http://www.w3.org/2000/svg" width="300px" height="50px" style=""><path fill="#" d="M3.5,37.88l0-15.12l-2.38-0.56l0-1.54l5.32-0.14l3.08,0c3.948,0,6.3,1.904,6.3,5.04c0,2.716-1.232,4.564-3.64,5.46c0.448,0.392,0.952,1.12,1.68,2.52l2.212,4.452l1.988,0.448l0,1.68l-4.2,0l-2.38-5.18c-1.316-2.8-1.932-3.36-3.78-3.36l-1.26,0l0,6.3l2.38,0.56l0,1.68l-7.7,0l0-1.68z M6.44,29.48l2.1,0c2.744,0,4.34-1.288,4.34-3.5c0-1.876-1.456-3.22-3.5-3.22l-2.94,0l0,6.72z M22.3608,29.62l-0.14-3.5s3.08-1.12,5.46-1.12c3.248,0,5.18,1.12,5.18,4.34l0,8.54l2.24,0.56l0,1.54l-4.34,0.14l-0.588-1.96c-0.952,0.952-2.632,2.24-4.592,2.24c-2.66,0-4.2-1.54-4.2-4.2c0-3.22,2.52-4.34,6.44-4.34l2.24,0l0-2.24c0-1.68-0.98-2.52-2.66-2.52s-2.828,0.42-2.828,0.42l-0.392,2.1l-1.82,0z M30.0608,33.68l-1.96,0c-2.8,0-3.864,0.7-3.864,2.38c0,1.26,0.784,2.1,2.044,2.1c2.1,0,3.78-2.24,3.78-2.24l0-2.24z M43.6016,25.28l0.252,1.988c0.672-0.588,2.884-2.268,5.208-2.268c3.08,0,4.48,1.96,4.48,5.04l0,7.84l2.1,0.7l0,1.54l-6.72,0l0-1.54l1.82-0.7l0-7.56c0-1.96-0.7-2.94-2.52-2.94c-2.38,0-4.06,2.24-4.06,2.24l0,8.26l1.82,0.7l0,1.54l-7,0l0-1.54l2.38-0.7l0-10.36l-2.38-0.56l0-1.54z M74.9224,38.44l0,1.54l-4.76,0.14l-0.224-1.596c-0.812,0.812-2.268,1.876-4.396,1.876c-4.06,0-5.88-2.94-5.88-7.28c0-4.76,2.38-8.12,7.42-8.12c1.036,0,1.932,0.196,2.66,0.448l0-4.648l-2.38-0.56l0-1.54l5.18-0.14l0,19.32z M69.7424,36.06l0-8.26s-0.98-0.56-2.94-0.56c-3.248,0-4.2,2.52-4.2,5.6s0.98,5.32,3.5,5.32c2.38,0,3.64-2.1,3.64-2.1z M85.8032,25c4.2,0,6.58,2.94,6.58,7.42c0,4.76-2.8,7.98-7,7.98s-6.72-2.52-6.72-7.56c0-4.76,2.94-7.84,7.14-7.84z M85.6632,27.24c-2.8,0-4.06,1.82-4.06,5.46c0,3.36,1.12,5.46,3.92,5.46s3.92-1.96,3.92-5.6c0-3.08-0.98-5.32-3.78-5.32z M101.164,25.28l0.252,1.988c0.644-0.616,2.772-2.268,5.068-2.268c2.016,0,3.248,0.952,3.892,2.408c0.364-0.364,2.632-2.408,5.208-2.408c3.08,0,4.34,1.96,4.34,5.04l0,7.84l2.1,0.7l0,1.54l-6.72,0l0-1.54l1.82-0.7l0-7.56c0-1.96-0.56-2.94-2.38-2.94c-2.38,0-3.92,2.24-3.92,2.24l0,8.26l1.82,0.7l0,1.54l-6.44,0l0-1.54l1.82-0.7l0-7.56c0-1.96-0.56-2.94-2.38-2.94c-2.38,0-3.92,2.24-3.92,2.24l0,8.26l1.82,0.7l0,1.54l-7,0l0-1.54l2.38-0.7l0-10.36l-2.38-0.56l0-1.54z M136.6456,37.88l0-15.12l-2.38-0.56l0-1.54l5.32-0.14l2.94,0c4.2,0,6.44,2.24,6.44,5.74c0,4.34-2.8,6.58-7.56,6.58l-1.82,0l0,5.04l2.38,0.56l0,1.68l-7.7,0l0-1.68z M139.5856,30.6l1.82,0c3.08,0,4.62-1.4,4.62-3.92c0-2.24-1.26-3.92-3.64-3.92l-2.8,0l0,7.84z M157.4664,18.56l0,8.456c0.868-0.728,2.828-2.016,4.9-2.016c3.08,0,4.48,1.96,4.48,5.04l0,7.84l2.1,0.7l0,1.54l-6.72,0l0-1.54l1.82-0.672l0-7.588c0-1.96-0.616-2.94-2.436-2.94c-2.38,0-4.144,2.24-4.144,2.24l0,8.26l1.82,0.7l0,1.54l-7,0l0-1.54l2.38-0.7l0-17.08l-2.38-0.56l0-1.54z M179.9672,25c4.2,0,6.58,2.94,6.58,7.42c0,4.76-2.8,7.98-7,7.98s-6.72-2.52-6.72-7.56c0-4.76,2.94-7.84,7.14-7.84z M179.8272,27.24c-2.8,0-4.06,1.82-4.06,5.46c0,3.36,1.12,5.46,3.92,5.46s3.92-1.96,3.92-5.6c0-3.08-0.98-5.32-3.78-5.32z M199.808,25.42l0,2.1l-4.06,0l0,8.988c0,1.288,0.616,1.708,1.4,1.708c0.672,0,1.456-0.308,2.184-0.7l0.756,1.484c-1.26,0.924-2.52,1.4-3.92,1.4c-1.68,0-3.22-0.924-3.22-4.06l0-8.82l-2.8,0l0-1.82l2.8-0.28l0-3.528l2.8-0.56l0,4.088l4.06,0z M210.8288,25c4.2,0,6.58,2.94,6.58,7.42c0,4.76-2.8,7.98-7,7.98s-6.72-2.52-6.72-7.56c0-4.76,2.94-7.84,7.14-7.84z M210.6888,27.24c-2.8,0-4.06,1.82-4.06,5.46c0,3.36,1.12,5.46,3.92,5.46s3.92-1.96,3.92-5.6c0-3.08-0.98-5.32-3.78-5.32z M223.6976,35.64l0.308,2.408s0.84,0.252,2.352,0.252c1.68,0,3.164-0.476,3.164-2.212c0-3.024-7.812-1.624-7.812-6.72c0-2.912,2.24-4.368,5.124-4.368c2.212,0,4.788,0.84,4.788,0.84l-0.084,3.78l-1.82,0l-0.448-2.184s-0.868-0.336-2.268-0.336c-1.428,0-2.492,0.448-2.492,1.876c0,2.996,7.812,1.848,7.812,6.636c0,3.22-2.8,4.788-6.16,4.788c-2.576,0-4.424-0.616-4.424-0.616l0-4.144l1.96,0z"/><path fill="#" d=""/></svg>
